<svg width="476" height="425" viewBox="0 0 476 425" fill="none" xmlns="http://www.w3.org/2000/svg">
<g filter="url(#filter0_d)">
<path d="M238 0L444.114 208.889H31.886L238 0Z" fill="#E84143" fill-opacity="0.93"/>
<path d="M238 417L31.886 208.111H444.114L238 417Z" fill="#E84143" fill-opacity="0.93"/>
</g>
<g filter="url(#filter1_d)">
<rect x="63" y="82" width="350" height="252.875" fill="#C5E3FF"/>
</g>
<g filter="url(#filter2_i)">
<path d="M118.688 204.2C120.48 204.2 121.845 203.795 122.784 202.984C123.765 202.131 124.256 200.851 124.256 199.144C124.256 197.523 123.744 196.285 122.72 195.432C121.739 194.536 120.288 194.088 118.368 194.088C117.685 194.088 117.109 194.109 116.64 194.152C116.213 194.152 115.765 194.195 115.296 194.28V204.2H118.688ZM115.36 224.744C114.891 224.872 114.144 225 113.12 225.128C112.139 225.256 111.157 225.32 110.176 225.32C109.195 225.32 108.32 225.235 107.552 225.064C106.827 224.936 106.208 224.68 105.696 224.296C105.184 223.912 104.8 223.379 104.544 222.696C104.288 222.013 104.16 221.117 104.16 220.008V189.864C104.16 188.968 104.395 188.285 104.864 187.816C105.376 187.304 106.059 186.899 106.912 186.6C108.363 186.088 110.005 185.725 111.84 185.512C113.717 185.256 115.595 185.128 117.472 185.128C123.36 185.128 127.861 186.387 130.976 188.904C134.091 191.421 135.648 194.835 135.648 199.144C135.648 201.235 135.307 203.133 134.624 204.84C133.984 206.504 133.003 207.955 131.68 209.192C130.4 210.387 128.757 211.325 126.752 212.008C124.789 212.648 122.507 212.968 119.904 212.968H115.36V224.744ZM141.348 192.168C141.348 190.333 141.881 188.883 142.948 187.816C144.014 186.749 145.465 186.216 147.3 186.216H168.42C168.718 186.685 168.974 187.304 169.188 188.072C169.444 188.84 169.572 189.651 169.572 190.504C169.572 192.125 169.209 193.277 168.484 193.96C167.801 194.643 166.884 194.984 165.732 194.984H152.228V200.936H166.628C166.926 201.405 167.182 202.024 167.396 202.792C167.652 203.517 167.78 204.307 167.78 205.16C167.78 206.781 167.438 207.933 166.756 208.616C166.073 209.299 165.156 209.64 164.004 209.64H152.228V216.36H168.676C168.974 216.829 169.23 217.448 169.444 218.216C169.7 218.984 169.828 219.795 169.828 220.648C169.828 222.269 169.465 223.443 168.74 224.168C168.057 224.851 167.14 225.192 165.988 225.192H147.3C145.465 225.192 144.014 224.659 142.948 223.592C141.881 222.525 141.348 221.075 141.348 219.24V192.168ZM174.618 195.176C174.319 194.707 174.042 194.067 173.786 193.256C173.53 192.445 173.402 191.592 173.402 190.696C173.402 189.032 173.765 187.837 174.49 187.112C175.258 186.387 176.239 186.024 177.434 186.024H205.338C205.637 186.493 205.914 187.133 206.17 187.944C206.426 188.755 206.554 189.608 206.554 190.504C206.554 192.168 206.17 193.363 205.402 194.088C204.677 194.813 203.717 195.176 202.522 195.176H195.418V224.744C194.949 224.872 194.202 225 193.178 225.128C192.197 225.256 191.215 225.32 190.234 225.32C189.253 225.32 188.378 225.235 187.61 225.064C186.885 224.936 186.266 224.68 185.754 224.296C185.242 223.912 184.858 223.379 184.602 222.696C184.346 222.013 184.218 221.117 184.218 220.008V195.176H174.618ZM235.793 209.576C233.916 208.936 232.209 208.296 230.673 207.656C229.137 206.973 227.814 206.163 226.705 205.224C225.596 204.285 224.721 203.176 224.081 201.896C223.484 200.573 223.185 198.973 223.185 197.096C223.185 193.469 224.572 190.568 227.345 188.392C230.161 186.216 234.086 185.128 239.121 185.128C240.956 185.128 242.662 185.256 244.241 185.512C245.82 185.768 247.164 186.173 248.273 186.728C249.425 187.24 250.321 187.923 250.961 188.776C251.601 189.587 251.921 190.547 251.921 191.656C251.921 192.765 251.665 193.725 251.153 194.536C250.641 195.304 250.022 195.965 249.297 196.52C248.358 195.923 247.1 195.411 245.521 194.984C243.942 194.515 242.214 194.28 240.337 194.28C238.417 194.28 237.009 194.557 236.113 195.112C235.217 195.624 234.769 196.285 234.769 197.096C234.769 197.736 235.046 198.269 235.601 198.696C236.156 199.08 236.988 199.443 238.097 199.784L241.489 200.872C245.5 202.152 248.572 203.795 250.705 205.8C252.881 207.763 253.969 210.451 253.969 213.864C253.969 217.491 252.54 220.435 249.681 222.696C246.822 224.915 242.62 226.024 237.073 226.024C235.11 226.024 233.276 225.853 231.569 225.512C229.905 225.213 228.433 224.765 227.153 224.168C225.916 223.528 224.934 222.76 224.209 221.864C223.526 220.925 223.185 219.859 223.185 218.664C223.185 217.427 223.548 216.381 224.273 215.528C224.998 214.632 225.788 213.949 226.641 213.48C227.836 214.419 229.286 215.229 230.993 215.912C232.742 216.595 234.641 216.936 236.689 216.936C238.78 216.936 240.252 216.616 241.105 215.976C241.958 215.336 242.385 214.589 242.385 213.736C242.385 212.883 242.044 212.243 241.361 211.816C240.678 211.347 239.718 210.899 238.481 210.472L235.793 209.576ZM294.723 224.744C294.254 224.872 293.507 225 292.483 225.128C291.502 225.256 290.52 225.32 289.539 225.32C288.558 225.32 287.683 225.235 286.915 225.064C286.19 224.936 285.571 224.68 285.059 224.296C284.547 223.912 284.163 223.379 283.907 222.696C283.651 222.013 283.523 221.117 283.523 220.008V210.024H271.235V224.744C270.766 224.872 270.019 225 268.995 225.128C268.014 225.256 267.032 225.32 266.051 225.32C265.07 225.32 264.195 225.235 263.427 225.064C262.702 224.936 262.083 224.68 261.571 224.296C261.059 223.912 260.675 223.379 260.419 222.696C260.163 222.013 260.035 221.117 260.035 220.008V186.216C260.504 186.131 261.251 186.024 262.275 185.896C263.299 185.725 264.28 185.64 265.219 185.64C266.2 185.64 267.054 185.725 267.779 185.896C268.547 186.024 269.187 186.28 269.699 186.664C270.211 187.048 270.595 187.581 270.851 188.264C271.107 188.947 271.235 189.843 271.235 190.952V201.192H283.523V186.216C283.992 186.131 284.739 186.024 285.763 185.896C286.787 185.725 287.768 185.64 288.707 185.64C289.688 185.64 290.542 185.725 291.267 185.896C292.035 186.024 292.675 186.28 293.187 186.664C293.699 187.048 294.083 187.581 294.339 188.264C294.595 188.947 294.723 189.843 294.723 190.952V224.744ZM301.115 205.544C301.115 202.216 301.627 199.272 302.651 196.712C303.718 194.152 305.147 192.019 306.939 190.312C308.774 188.563 310.907 187.24 313.339 186.344C315.814 185.448 318.48 185 321.339 185C324.198 185 326.843 185.448 329.275 186.344C331.75 187.24 333.904 188.563 335.739 190.312C337.574 192.019 339.003 194.152 340.027 196.712C341.094 199.272 341.627 202.216 341.627 205.544C341.627 208.872 341.115 211.837 340.091 214.44C339.067 217 337.638 219.155 335.803 220.904C334.011 222.611 331.878 223.912 329.403 224.808C326.928 225.704 324.24 226.152 321.339 226.152C318.438 226.152 315.75 225.704 313.275 224.808C310.8 223.869 308.667 222.525 306.875 220.776C305.083 219.027 303.675 216.872 302.651 214.312C301.627 211.752 301.115 208.829 301.115 205.544ZM312.635 205.544C312.635 209.427 313.424 212.328 315.003 214.248C316.582 216.168 318.694 217.128 321.339 217.128C324.027 217.128 326.16 216.168 327.739 214.248C329.318 212.328 330.107 209.427 330.107 205.544C330.107 201.704 329.318 198.824 327.739 196.904C326.203 194.984 324.091 194.024 321.403 194.024C318.758 194.024 316.624 194.984 315.003 196.904C313.424 198.781 312.635 201.661 312.635 205.544ZM362.563 204.2C364.355 204.2 365.72 203.795 366.659 202.984C367.64 202.131 368.131 200.851 368.131 199.144C368.131 197.523 367.619 196.285 366.595 195.432C365.614 194.536 364.163 194.088 362.243 194.088C361.56 194.088 360.984 194.109 360.515 194.152C360.088 194.152 359.64 194.195 359.171 194.28V204.2H362.563ZM359.235 224.744C358.766 224.872 358.019 225 356.995 225.128C356.014 225.256 355.032 225.32 354.051 225.32C353.07 225.32 352.195 225.235 351.427 225.064C350.702 224.936 350.083 224.68 349.571 224.296C349.059 223.912 348.675 223.379 348.419 222.696C348.163 222.013 348.035 221.117 348.035 220.008V189.864C348.035 188.968 348.27 188.285 348.739 187.816C349.251 187.304 349.934 186.899 350.787 186.6C352.238 186.088 353.88 185.725 355.715 185.512C357.592 185.256 359.47 185.128 361.347 185.128C367.235 185.128 371.736 186.387 374.851 188.904C377.966 191.421 379.523 194.835 379.523 199.144C379.523 201.235 379.182 203.133 378.499 204.84C377.859 206.504 376.878 207.955 375.555 209.192C374.275 210.387 372.632 211.325 370.627 212.008C368.664 212.648 366.382 212.968 363.779 212.968H359.235V224.744Z" fill="#EB3535" fill-opacity="0.93"/>
</g>
<defs>
<filter id="filter0_d" x="27.886" y="0" width="420.228" height="425" filterUnits="userSpaceOnUse" color-interpolation-filters="sRGB">
<feFlood flood-opacity="0" result="BackgroundImageFix"/>
<feColorMatrix in="SourceAlpha" type="matrix" values="0 0 0 0 0 0 0 0 0 0 0 0 0 0 0 0 0 0 127 0"/>
<feOffset dy="4"/>
<feGaussianBlur stdDeviation="2"/>
<feColorMatrix type="matrix" values="0 0 0 0 0 0 0 0 0 0 0 0 0 0 0 0 0 0 0.25 0"/>
<feBlend mode="normal" in2="BackgroundImageFix" result="effect1_dropShadow"/>
<feBlend mode="normal" in="SourceGraphic" in2="effect1_dropShadow" result="shape"/>
</filter>
<filter id="filter1_d" x="59" y="82" width="358" height="260.875" filterUnits="userSpaceOnUse" color-interpolation-filters="sRGB">
<feFlood flood-opacity="0" result="BackgroundImageFix"/>
<feColorMatrix in="SourceAlpha" type="matrix" values="0 0 0 0 0 0 0 0 0 0 0 0 0 0 0 0 0 0 127 0"/>
<feOffset dy="4"/>
<feGaussianBlur stdDeviation="2"/>
<feColorMatrix type="matrix" values="0 0 0 0 0 0 0 0 0 0 0 0 0 0 0 0 0 0 0.25 0"/>
<feBlend mode="normal" in2="BackgroundImageFix" result="effect1_dropShadow"/>
<feBlend mode="normal" in="SourceGraphic" in2="effect1_dropShadow" result="shape"/>
</filter>
<filter id="filter2_i" x="104.16" y="185" width="275.363" height="45.152" filterUnits="userSpaceOnUse" color-interpolation-filters="sRGB">
<feFlood flood-opacity="0" result="BackgroundImageFix"/>
<feBlend mode="normal" in="SourceGraphic" in2="BackgroundImageFix" result="shape"/>
<feColorMatrix in="SourceAlpha" type="matrix" values="0 0 0 0 0 0 0 0 0 0 0 0 0 0 0 0 0 0 127 0" result="hardAlpha"/>
<feOffset dy="4"/>
<feGaussianBlur stdDeviation="2"/>
<feComposite in2="hardAlpha" operator="arithmetic" k2="-1" k3="1"/>
<feColorMatrix type="matrix" values="0 0 0 0 0 0 0 0 0 0 0 0 0 0 0 0 0 0 0.25 0"/>
<feBlend mode="normal" in2="shape" result="effect1_innerShadow"/>
</filter>
</defs>
</svg>
